<svg width="1935" height="2065" viewBox="0 0 1935 2065" fill="none" xmlns="http://www.w3.org/2000/svg">
<path d="M549.655 847.218C549.655 889.469 509.129 1048.34 488.866 1122.49L949.581 1405.77V1762.66L693.629 2060.34L690.547 2065H0V964.365C248.488 987.85 468.245 897.417 549.655 847.218Z" fill="#FFF8F0"/>
<path fill-rule="evenodd" clip-rule="evenodd" d="M0 0.0456858C72.4456 -0.537955 147.303 4.38412 208.918 19.7947C352.251 55.6443 495.798 144.628 549.655 184.639C749.298 73.25 922.92 65.6743 984.775 75.8103L1467.89 367.089L1499.88 490.322C1689.28 647.804 1868.88 869.623 1935 960.847C1913.14 978.452 1865.25 1013.66 1848.62 1013.66C1831.98 1013.66 1719.04 949.645 1664.65 917.637C1684.91 949.645 1738.56 1023.26 1791.03 1061.67C1843.5 1100.08 1882.21 1077.68 1895.01 1061.67C1901.41 1160.26 1828.35 1236.12 1791.03 1261.73C1690.24 1261.73 1499.88 1163.07 1416.7 1122.49C1538.27 1261.73 1703.04 1263.33 1765.43 1314.54L1603.86 1405.77C1502.76 1413.45 1404.96 1333.21 1368.7 1292.14H984.775L693.629 1013.66C666.754 940.682 725.089 689.841 757.616 573.544C565.652 804.005 283.037 816.809 165.726 794.403C224.595 497.364 446.208 307.873 549.655 250.258C216.772 316.884 60.5342 580.07 0 789.88V0.0456858ZM881 456C935.569 468.621 988.321 487.597 1037.68 509.935C1020.63 566.349 1009.22 686.24 1100.03 714.499C1190.84 742.757 1278.56 707.351 1311.07 686.116C1322.97 696.592 1333.16 706.17 1341.45 714.499H1407C1215.15 533.39 976.394 466.704 881 456Z" fill="#FFF8F0"/>
</svg>
